<svg width="26" height="26" viewBox="0 0 26 26" fill="none" xmlns="http://www.w3.org/2000/svg">
<rect width="26" height="26" rx="13" fill="#F5F5F5"/>
<rect x="0.270833" y="0.270833" width="25.4583" height="25.4583" rx="12.7292" stroke="#0E111B" stroke-opacity="0.1" stroke-width="0.541667"/>
<path fill-rule="evenodd" clip-rule="evenodd" d="M14.0756 3.92106C13.41 3.53677 12.5899 3.53677 11.9243 3.92106L5.67514 7.529C5.00953 7.9133 4.59949 8.6235 4.59949 9.3921V16.608C4.59949 17.3766 5.00952 18.0868 5.67514 18.4711L11.9243 22.079C12.5899 22.4633 13.41 22.4633 14.0756 22.079L20.3247 18.4711C20.9903 18.0868 21.4004 17.3766 21.4004 16.608V9.3921C21.4004 8.62351 20.9903 7.9133 20.3247 7.529L14.0756 3.92106ZM6.28758 17.4103C6.12463 17.3162 5.99725 17.1768 5.91764 17.0131L12.6304 5.38625V21.0655C12.5985 21.0516 12.5673 21.0359 12.5367 21.0182L6.28758 17.4103ZM13.3694 21.0655V5.38625L20.0822 17.0131C20.0026 17.1768 19.8752 17.3162 19.7123 17.4103L13.4632 21.0182C13.4326 21.0359 13.4013 21.0516 13.3694 21.0655ZM6.28758 8.58977L11.7475 5.43749L5.82436 15.6967V9.3921C5.82436 9.06111 6.00094 8.75527 6.28758 8.58977ZM20.1755 15.6967L14.2524 5.43749L19.7123 8.58977C19.9989 8.75527 20.1755 9.06111 20.1755 9.3921V15.6967Z" fill="#0E111B"/>
</svg>
